<svg xmlns="http://www.w3.org/2000/svg" xmlns:xlink="http://www.w3.org/1999/xlink" width="2000" zoomAndPan="magnify" viewBox="0 0 1500 1499.999933" height="2000" preserveAspectRatio="xMidYMid meet" version="1.0"><defs><g/></defs><rect x="-150" width="1800" fill="#ffffff" y="-149.999993" height="1799.99992" fill-opacity="1"/><rect x="-150" width="1800" fill="#ffffff" y="-149.999993" height="1799.99992" fill-opacity="1"/><g fill="#4f46e5" fill-opacity="1"><g transform="translate(444.725946, 834.92812)"><g><path d="M 350.703125 -247.59375 C 350.703125 -224.0625 344.726562 -203.609375 332.78125 -186.234375 C 320.832031 -168.867188 304.101562 -155.453125 282.59375 -145.984375 C 261.09375 -136.523438 235.914062 -131.796875 207.0625 -131.796875 C 194.195312 -131.796875 181.972656 -132.664062 170.390625 -134.40625 C 158.804688 -136.15625 148.050781 -138.679688 138.125 -141.984375 L 138.125 -39.703125 C 138.125 -31.066406 142.722656 -26.101562 151.921875 -24.8125 L 179.765625 -21.5 C 187.296875 -20.21875 191.0625 -16.453125 191.0625 -10.203125 C 191.0625 -3.398438 186.5625 0 177.5625 0 L 44.9375 0 C 35.9375 0 31.4375 -3.398438 31.4375 -10.203125 C 31.4375 -12.960938 32.21875 -15.257812 33.78125 -17.09375 C 35.34375 -18.925781 38.050781 -20.394531 41.90625 -21.5 L 59.828125 -24.8125 C 69.015625 -27.019531 73.609375 -31.984375 73.609375 -39.703125 L 73.609375 -346.296875 C 73.609375 -354.015625 69.015625 -358.976562 59.828125 -361.1875 L 41.90625 -364.484375 C 38.050781 -365.585938 35.34375 -367.054688 33.78125 -368.890625 C 32.21875 -370.734375 31.4375 -373.035156 31.4375 -375.796875 C 31.4375 -382.597656 35.9375 -386 44.9375 -386 L 168.734375 -386 C 197.410156 -386 223.003906 -382.597656 245.515625 -375.796875 C 268.035156 -368.992188 287.109375 -359.390625 302.734375 -346.984375 C 318.359375 -334.578125 330.257812 -319.914062 338.4375 -303 C 346.613281 -286.09375 350.703125 -267.625 350.703125 -247.59375 Z M 138.125 -363.65625 L 138.125 -163.765625 C 146.21875 -160.828125 154.8125 -158.664062 163.90625 -157.28125 C 173.007812 -155.90625 182.25 -155.21875 191.625 -155.21875 C 210.363281 -155.21875 226.859375 -158.941406 241.109375 -166.390625 C 255.359375 -173.835938 266.476562 -184.585938 274.46875 -198.640625 C 282.46875 -212.703125 286.46875 -229.570312 286.46875 -249.25 C 286.46875 -272.21875 281.640625 -292.296875 271.984375 -309.484375 C 262.335938 -326.671875 248.597656 -339.992188 230.765625 -349.453125 C 212.941406 -358.921875 191.710938 -363.65625 167.078125 -363.65625 Z M 138.125 -363.65625 "/></g></g></g><g fill="#4f46e5" fill-opacity="1"><g transform="translate(780.538094, 834.92812)"><g><path d="M 215.609375 -61.484375 C 215.609375 -47.515625 211.378906 -35.289062 202.921875 -24.8125 C 194.460938 -14.332031 182.601562 -6.195312 167.34375 -0.40625 C 152.09375 5.375 134.269531 8.265625 113.875 8.265625 C 94.75 8.265625 78.523438 5.550781 65.203125 0.125 C 51.878906 -5.289062 41.722656 -12.773438 34.734375 -22.328125 C 27.753906 -31.890625 24.265625 -43.007812 24.265625 -55.6875 C 24.265625 -66.71875 27.25 -75.632812 33.21875 -82.4375 C 39.195312 -89.238281 47.332031 -92.640625 57.625 -92.640625 C 66.082031 -92.640625 72.925781 -89.695312 78.15625 -83.8125 C 83.394531 -77.9375 86.015625 -69.757812 86.015625 -59.28125 L 86.015625 -42.453125 C 86.015625 -33.078125 88.453125 -25.722656 93.328125 -20.390625 C 98.203125 -15.066406 106.519531 -12.40625 118.28125 -12.40625 C 130.59375 -12.40625 140.929688 -15.53125 149.296875 -21.78125 C 157.660156 -28.03125 161.84375 -37.222656 161.84375 -49.359375 C 161.84375 -56.335938 160.597656 -62.859375 158.109375 -68.921875 C 155.628906 -74.992188 152.503906 -81.0625 148.734375 -87.125 C 144.972656 -93.1875 141.207031 -99.707031 137.4375 -106.6875 C 133.675781 -113.675781 130.550781 -121.628906 128.0625 -130.546875 C 125.582031 -139.460938 124.34375 -149.800781 124.34375 -161.5625 L 124.34375 -346.296875 C 124.34375 -354.566406 119.75 -359.53125 110.5625 -361.1875 L 90.15625 -364.484375 C 82.625 -365.773438 78.859375 -369.546875 78.859375 -375.796875 C 78.859375 -382.597656 83.359375 -386 92.359375 -386 L 217.53125 -386 C 226.539062 -386 231.046875 -382.597656 231.046875 -375.796875 C 231.046875 -373.035156 230.265625 -370.734375 228.703125 -368.890625 C 227.140625 -367.054688 224.425781 -365.585938 220.5625 -364.484375 L 202.640625 -361.1875 C 193.453125 -358.976562 188.859375 -354.015625 188.859375 -346.296875 L 188.859375 -166.25 C 188.859375 -156.144531 189.773438 -147.234375 191.609375 -139.515625 C 193.453125 -131.796875 195.707031 -124.8125 198.375 -118.5625 C 201.039062 -112.3125 203.660156 -106.289062 206.234375 -100.5 C 208.804688 -94.707031 211.007812 -88.6875 212.84375 -82.4375 C 214.6875 -76.1875 215.609375 -69.203125 215.609375 -61.484375 Z M 215.609375 -61.484375 "/></g></g></g></svg>